<svg xmlns="http://www.w3.org/2000/svg" style="display: none;">
  <symbol id="icon-map-pin" viewBox="0 0 24 24">
    <path d="M21 10c0 7-9 13-9 13s-9-6-9-13a9 9 0 0 1 18 0z"></path>
    <circle cx="12" cy="10" r="3"></circle>
  </symbol>
  
  <symbol id="icon-user" viewBox="0 0 24 24">
    <path d="M20 21v-2a4 4 0 0 0-4-4H8a4 4 0 0 0-4 4v2"></path>
    <circle cx="12" cy="7" r="4"></circle>
  </symbol>
  
  <symbol id="icon-log-out" viewBox="0 0 24 24">
    <path d="M9 21H5a2 2 0 0 1-2-2V5a2 2 0 0 1 2-2h4"></path>
    <polyline points="16 17 21 12 16 7"></polyline>
    <line x1="21" y1="12" x2="9" y2="12"></line>
  </symbol>
  
  <symbol id="icon-search" viewBox="0 0 24 24">
    <circle cx="11" cy="11" r="8"></circle>
    <path d="m21 21-4.35-4.35"></path>
  </symbol>
  
  <symbol id="icon-clock" viewBox="0 0 24 24">
    <circle cx="12" cy="12" r="10"></circle>
    <polyline points="12 6 12 12 16 14"></polyline>
  </symbol>
  
  <symbol id="icon-history" viewBox="0 0 24 24">
    <path d="M3 3v5h5"></path>
    <path d="M3.05 13A9 9 0 1 0 6 5.3L3 8"></path>
    <path d="M12 7v5l4 2"></path>
  </symbol>
</svg>
